<svg xmlns="http://www.w3.org/2000/svg" xmlns:xlink="http://www.w3.org/1999/xlink" version="1.1" id="Layer_1" x="0px" y="0px" viewBox="0 0 232 68" style="enable-background:new 0 0 232 68;" xml:space="preserve">

<path class="st0" d="M64.6,16.2C63,9.9,58.1,5,51.8,3.4C40,1.5,28,1.5,16.2,3.4C9.9,5,5,9.9,3.4,16.2C1.5,28,1.5,40,3.4,51.8  C5,58.1,9.9,63,16.2,64.6c11.8,1.9,23.8,1.9,35.6,0C58.1,63,63,58.1,64.6,51.8C66.5,40,66.5,28,64.6,16.2z"/>
<g class="st1">
	<path class="st2" d="M82.3,43.3c-0.3,0-0.4,0-0.5-0.1c-0.1,0-0.1-0.2-0.2-0.5l-3.2-9.9v9.9c0,0.4-0.2,0.6-0.6,0.6h-3.3   c-0.4,0-0.6-0.2-0.6-0.6V22.6c0-0.4,0.2-0.6,0.6-0.6h3.7c0.3,0,0.5,0,0.5,0.1s0.1,0.2,0.2,0.5l4,12.6L87,22.5   c0.1-0.3,0.2-0.5,0.2-0.5s0.2-0.1,0.5-0.1h3.7c0.4,0,0.6,0.2,0.6,0.6v20.1c0,0.4-0.2,0.6-0.6,0.6h-3.3c-0.3,0-0.5,0-0.5-0.1   c-0.1-0.1-0.1-0.2-0.1-0.5v-9.9l-3.2,9.9c-0.1,0.3-0.2,0.5-0.2,0.5c-0.1,0-0.2,0.1-0.5,0.1H82.3z"/>
	<path class="st2" d="M109.3,22c0.3,0,0.5,0,0.5,0.1c0.1,0.1,0.1,0.2,0.1,0.5v15.7c0,1.8-0.4,3.1-1.2,3.9c-0.8,0.8-2.1,1.2-3.9,1.2   h-3.5c-1.8,0-3.1-0.4-3.9-1.2s-1.2-2.1-1.2-3.9V22.6c0-0.3,0-0.4,0.1-0.5c0.1-0.1,0.2-0.1,0.5-0.1h3.3c0.4,0,0.6,0.2,0.6,0.6v15.5   c0,0.7,0.1,1.1,0.3,1.3c0.2,0.2,0.7,0.3,1.4,0.3h1.4c0.7,0,1.2-0.1,1.4-0.3c0.2-0.2,0.3-0.7,0.3-1.3V22.6c0-0.4,0.2-0.6,0.6-0.6   H109.3z"/>
	<path class="st2" d="M114,22.6c0-0.4,0.2-0.6,0.6-0.6h3.3c0.4,0,0.6,0.2,0.6,0.6v17.1h5.8c0.3,0,0.5,0,0.5,0.1   c0.1,0.1,0.1,0.2,0.1,0.5v2.5c0,0.3,0,0.4-0.1,0.5c-0.1,0.1-0.2,0.1-0.5,0.1h-9.7c-0.4,0-0.6-0.2-0.6-0.6V22.6z"/>
	<path class="st2" d="M137.4,22c0.4,0,0.6,0.2,0.6,0.6V25c0,0.3,0,0.5-0.1,0.5c-0.1,0.1-0.2,0.1-0.5,0.1h-3.7v17.1   c0,0.4-0.2,0.6-0.6,0.6h-3.3c-0.4,0-0.6-0.2-0.6-0.6V25.6h-3.7c-0.3,0-0.4,0-0.5-0.1c-0.1-0.1-0.1-0.2-0.1-0.5v-2.5   c0-0.4,0.2-0.6,0.6-0.6H137.4z"/>
	<path class="st2" d="M139.8,25.6c-0.3,0-0.5,0-0.5-0.1c-0.1-0.1-0.1-0.2-0.1-0.5v-2.5c0-0.3,0-0.4,0.1-0.5c0.1-0.1,0.2-0.1,0.5-0.1   h7.2c0.3,0,0.5,0,0.5,0.1c0.1,0.1,0.1,0.2,0.1,0.5V25c0,0.3,0,0.5-0.1,0.5c-0.1,0.1-0.2,0.1-0.5,0.1h-1.4v14h1.4   c0.3,0,0.5,0,0.5,0.1c0.1,0.1,0.1,0.2,0.1,0.5v2.5c0,0.3,0,0.4-0.1,0.5c-0.1,0.1-0.2,0.1-0.5,0.1h-7.2c-0.3,0-0.5,0-0.5-0.1   c-0.1-0.1-0.1-0.2-0.1-0.5v-2.5c0-0.3,0-0.5,0.1-0.5c0.1-0.1,0.2-0.1,0.5-0.1h1.4v-14H139.8z"/>
	<path class="st2" d="M156.1,33.1c0.4,0,0.5,0.2,0.5,0.5v2.2c0,0.3-0.2,0.5-0.5,0.5h-5.6c-0.4,0-0.5-0.2-0.5-0.5v-2.2   c0-0.3,0.2-0.5,0.5-0.5H156.1z"/>
	<path class="st2" d="M160.1,22.6c0-0.4,0.2-0.6,0.6-0.6h3.3c0.4,0,0.6,0.2,0.6,0.6v17.1h5.8c0.3,0,0.5,0,0.5,0.1s0.1,0.2,0.1,0.5   v2.5c0,0.3,0,0.4-0.1,0.5c-0.1,0.1-0.2,0.1-0.5,0.1h-9.7c-0.4,0-0.6-0.2-0.6-0.6V22.6z"/>
	<path class="st2" d="M173.3,22.6c0-0.4,0.2-0.6,0.6-0.6h10c0.3,0,0.5,0,0.5,0.1c0.1,0.1,0.1,0.2,0.1,0.5V25c0,0.3,0,0.5-0.1,0.5   c-0.1,0.1-0.2,0.1-0.5,0.1h-6.1v5h5.7c0.4,0,0.6,0.2,0.6,0.6v2.5c0,0.3,0,0.5-0.1,0.5s-0.2,0.1-0.5,0.1h-5.7v5.4h6.4   c0.3,0,0.4,0,0.5,0.1c0.1,0.1,0.1,0.2,0.1,0.5v2.5c0,0.4-0.2,0.6-0.6,0.6h-10.3c-0.4,0-0.6-0.2-0.6-0.6V22.6z"/>
	<path class="st2" d="M186.2,22.5c-0.1-0.3-0.1-0.5,0-0.5c0,0,0.2-0.1,0.5-0.1h3.3c0.3,0,0.4,0,0.5,0.1c0.1,0.1,0.1,0.2,0.2,0.5   l3,13.6l3.1-13.6c0.1-0.3,0.1-0.5,0.2-0.5c0.1-0.1,0.3-0.1,0.5-0.1h3.3c0.3,0,0.4,0,0.5,0.1c0.1,0,0,0.2,0,0.5l-5.2,20.2   c-0.1,0.3-0.2,0.5-0.2,0.5c-0.1,0-0.2,0.1-0.5,0.1h-3.3c-0.3,0-0.5,0-0.5-0.1c-0.1,0-0.1-0.2-0.2-0.5L186.2,22.5z"/>
	<path class="st2" d="M203.6,22.6c0-0.4,0.2-0.6,0.6-0.6h10c0.3,0,0.5,0,0.5,0.1c0.1,0.1,0.1,0.2,0.1,0.5V25c0,0.3,0,0.5-0.1,0.5   c-0.1,0.1-0.2,0.1-0.5,0.1h-6.1v5h5.7c0.4,0,0.6,0.2,0.6,0.6v2.5c0,0.3,0,0.5-0.1,0.5c-0.1,0.1-0.2,0.1-0.5,0.1h-5.7v5.4h6.4   c0.3,0,0.4,0,0.5,0.1c0.1,0.1,0.1,0.2,0.1,0.5v2.5c0,0.4-0.2,0.6-0.6,0.6h-10.3c-0.4,0-0.6-0.2-0.6-0.6V22.6z"/>
	<path class="st2" d="M218.4,22.6c0-0.4,0.2-0.6,0.6-0.6h3.3c0.4,0,0.6,0.2,0.6,0.6v17.1h5.8c0.3,0,0.5,0,0.5,0.1s0.1,0.2,0.1,0.5   v2.5c0,0.3,0,0.4-0.1,0.5c-0.1,0.1-0.2,0.1-0.5,0.1h-9.7c-0.4,0-0.6-0.2-0.6-0.6V22.6z"/>
</g>
<g>
	<g>
		<path class="st3" d="M25.5,46.7c-0.3,0-0.6,0-0.6-0.1c-0.1-0.1-0.2-0.3-0.3-0.6l-4.2-12.8v12.8c0,0.5-0.3,0.8-0.8,0.8h-4.3    c-0.5,0-0.8-0.3-0.8-0.8v-26c0-0.5,0.3-0.8,0.8-0.8h4.8c0.4,0,0.6,0,0.7,0.1c0.1,0.1,0.2,0.3,0.3,0.6l5.2,16.2l5.2-16.2    c0.1-0.4,0.2-0.6,0.3-0.6c0.1-0.1,0.3-0.1,0.7-0.1h4.8c0.5,0,0.8,0.3,0.8,0.8v26c0,0.5-0.3,0.8-0.8,0.8H33c-0.4,0-0.6,0-0.7-0.1    c-0.1-0.1-0.1-0.3-0.1-0.6V33.1l-4.2,12.8c-0.1,0.4-0.2,0.6-0.3,0.6c-0.1,0.1-0.3,0.1-0.6,0.1H25.5z"/>
		<path class="st3" d="M43.6,19.9c0-0.5,0.3-0.8,0.8-0.8h4.3c0.5,0,0.8,0.3,0.8,0.8v22h7.5c0.4,0,0.6,0,0.7,0.1    c0.1,0.1,0.1,0.3,0.1,0.7v3.2c0,0.3,0,0.6-0.1,0.6c-0.1,0.1-0.3,0.1-0.7,0.1H44.4c-0.5,0-0.8-0.3-0.8-0.8V19.9z"/>
	</g>
</g>
</svg>