<svg xmlns="http://www.w3.org/2000/svg" width="220" height="120" viewBox="0 0 220 120" fill="none"><path d="M50.7998 43.7998C50.7998 40.2652 53.6652 37.3998 57.1998 37.3998H162.8C166.334 37.3998 169.2 40.2652 169.2 43.7998V111H50.7998V43.7998Z" fill="#E1E5EA"/><path d="M50.7998 43.7998C50.7998 40.2652 53.6652 37.3998 57.1998 37.3998H162.8C166.334 37.3998 169.2 40.2652 169.2 43.7998V111H50.7998V43.7998Z" stroke="#3D4D5C" stroke-width="1.2"/><path d="M58.7998 47.7998C58.7998 46.4743 59.8743 45.3998 61.1998 45.3998H158.8C160.125 45.3998 161.2 46.4743 161.2 47.7998V111H58.7998V47.7998Z" fill="#CACFD3"/><path d="M58.7998 47.7998C58.7998 46.4743 59.8743 45.3998 61.1998 45.3998H158.8C160.125 45.3998 161.2 46.4743 161.2 47.7998V111H58.7998V47.7998Z" stroke="#3D4D5C" stroke-width="1.2"/><rect opacity="0.08" x="148.399" y="37.4003" width="4.8" height="73.6" fill="#3D4D5C"/><path fill-rule="evenodd" clip-rule="evenodd" d="M71.5996 111H148.4V26.2002C148.4 24.4329 146.967 23.0002 145.2 23.0002H74.7996C73.0323 23.0002 71.5996 24.4329 71.5996 26.2002V111Z" fill="white"/><path fill-rule="evenodd" clip-rule="evenodd" d="M71.5996 111H148.4V26.2002C148.4 24.4329 146.967 23.0002 145.2 23.0002H74.7996C73.0323 23.0002 71.5996 24.4329 71.5996 26.2002V111Z" stroke="#3D4D5C" stroke-width="1.2"/><g opacity="0.6" clip-path="url(#clip0_516_32207)"><path fill-rule="evenodd" clip-rule="evenodd" d="M92.3992 37.4C92.3992 40.4929 89.8923 43.0003 86.7992 43.0003C83.7067 43.0003 81.1992 40.4929 81.1992 37.4C81.1992 34.3071 83.7067 31.8003 86.7992 31.8003C89.8923 31.8003 92.3992 34.3071 92.3992 37.4Z" fill="#E1E5EA"/><path d="M85.072 37.1068C85.0218 37.0566 84.9617 37.0166 84.8953 36.989C84.8289 36.9615 84.7574 36.947 84.6851 36.9464C84.6129 36.9458 84.5412 36.9591 84.4743 36.9855C84.4073 37.0119 84.3466 37.0509 84.2954 37.1003C84.2443 37.1496 84.2039 37.2083 84.1765 37.2728C84.1491 37.3374 84.1354 37.4066 84.136 37.4763C84.1366 37.5461 84.1517 37.615 84.1802 37.6791C84.2087 37.7432 84.2502 37.8012 84.3022 37.8497L85.7504 39.2467C85.8525 39.3452 85.9909 39.4005 86.1353 39.4005C86.2796 39.4005 86.4181 39.3452 86.5202 39.2467L89.5832 36.2909C89.6823 36.1918 89.7372 36.0591 89.736 35.9213C89.7347 35.7835 89.6775 35.6518 89.5765 35.5544C89.4756 35.4569 89.339 35.4017 89.1963 35.4005C89.0535 35.3993 88.916 35.4523 88.8133 35.548L86.1347 38.1323L85.072 37.1068Z" fill="#A8B0B8"/><rect x="97.1992" y="33.8005" width="40" height="1.2" rx="0.6" fill="#A8B0B8"/><rect x="97.1992" y="37.0007" width="32" height="1.2" rx="0.6" fill="#A8B0B8"/><rect x="97.1992" y="40.2007" width="16" height="1.2" rx="0.6" fill="#A8B0B8"/><path fill-rule="evenodd" clip-rule="evenodd" d="M92.3992 56.6002C92.3992 59.6931 89.8923 62.2005 86.7992 62.2005C83.7067 62.2005 81.1992 59.6931 81.1992 56.6002C81.1992 53.5073 83.7067 51.0005 86.7992 51.0005C89.8923 51.0005 92.3992 53.5073 92.3992 56.6002Z" fill="#E1E5EA"/><path d="M85.072 56.3068C85.0218 56.2566 84.9617 56.2166 84.8953 56.189C84.8289 56.1615 84.7574 56.147 84.6851 56.1464C84.6129 56.1458 84.5412 56.1591 84.4743 56.1855C84.4073 56.2119 84.3466 56.2509 84.2954 56.3003C84.2443 56.3496 84.2039 56.4083 84.1765 56.4728C84.1491 56.5374 84.1354 56.6066 84.136 56.6763C84.1366 56.7461 84.1517 56.815 84.1802 56.8791C84.2087 56.9432 84.2502 57.0012 84.3022 57.0497L85.7504 58.4467C85.8525 58.5452 85.9909 58.6005 86.1353 58.6005C86.2796 58.6005 86.4181 58.5452 86.5202 58.4467L89.5832 55.4909C89.6823 55.3918 89.7372 55.2591 89.736 55.1213C89.7347 54.9836 89.6775 54.8518 89.5765 54.7544C89.4756 54.657 89.339 54.6017 89.1963 54.6005C89.0535 54.5993 88.916 54.6523 88.8133 54.748L86.1347 57.3323L85.072 56.3068Z" fill="#A8B0B8"/><rect x="97.1992" y="53.0005" width="32" height="1.2" rx="0.6" fill="#A8B0B8"/><rect x="97.1992" y="56.2005" width="41.6" height="1.2" rx="0.6" fill="#A8B0B8"/><rect x="97.1992" y="59.4005" width="36" height="1.2" rx="0.6" fill="#A8B0B8"/><path fill-rule="evenodd" clip-rule="evenodd" d="M92.3992 75.8002C92.3992 78.8931 89.8923 81.4005 86.7992 81.4005C83.7067 81.4005 81.1992 78.8931 81.1992 75.8002C81.1992 72.7073 83.7067 70.2005 86.7992 70.2005C89.8923 70.2005 92.3992 72.7073 92.3992 75.8002Z" fill="#E1E5EA"/><path d="M85.072 75.5066C85.0218 75.4564 84.9617 75.4164 84.8953 75.3888C84.8289 75.3613 84.7574 75.3468 84.6851 75.3462C84.6129 75.3456 84.5412 75.3589 84.4743 75.3853C84.4073 75.4117 84.3466 75.4507 84.2954 75.5001C84.2443 75.5494 84.2039 75.6081 84.1765 75.6726C84.1491 75.7372 84.1354 75.8064 84.136 75.8761C84.1366 75.9459 84.1517 76.0148 84.1802 76.0789C84.2087 76.143 84.2502 76.201 84.3022 76.2495L85.7504 77.6465C85.8525 77.745 85.9909 77.8003 86.1353 77.8003C86.2796 77.8003 86.4181 77.745 86.5202 77.6465L89.5832 74.6907C89.6823 74.5916 89.7372 74.4589 89.736 74.3211C89.7347 74.1834 89.6775 74.0516 89.5765 73.9542C89.4756 73.8568 89.339 73.8015 89.1963 73.8003C89.0535 73.7991 88.916 73.8521 88.8133 73.9478L86.1347 76.5321L85.072 75.5066Z" fill="#A8B0B8"/><rect x="97.1992" y="72.2003" width="40" height="1.2" rx="0.6" fill="#A8B0B8"/><rect x="97.1992" y="75.4001" width="37.6" height="1.2" rx="0.6" fill="#A8B0B8"/><rect x="97.1992" y="78.6001" width="24" height="1.2" rx="0.6" fill="#A8B0B8"/><path fill-rule="evenodd" clip-rule="evenodd" d="M92.3992 95.0002C92.3992 98.0931 89.8923 100.6 86.7992 100.6C83.7067 100.6 81.1992 98.0931 81.1992 95.0002C81.1992 91.9073 83.7067 89.4005 86.7992 89.4005C89.8923 89.4005 92.3992 91.9073 92.3992 95.0002Z" fill="#E1E5EA"/><path d="M85.072 94.7068C85.0218 94.6566 84.9617 94.6166 84.8953 94.5891C84.8289 94.5615 84.7574 94.547 84.6851 94.5464C84.6129 94.5458 84.5412 94.5591 84.4743 94.5855C84.4073 94.6119 84.3466 94.651 84.2954 94.7003C84.2443 94.7496 84.2039 94.8083 84.1765 94.8728C84.1491 94.9374 84.1354 95.0066 84.136 95.0764C84.1366 95.1461 84.1517 95.2151 84.1802 95.2791C84.2087 95.3432 84.2502 95.4012 84.3022 95.4497L85.7504 96.8467C85.8525 96.9452 85.9909 97.0005 86.1353 97.0005C86.2796 97.0005 86.4181 96.9452 86.5202 96.8467L89.5832 93.8909C89.6823 93.7918 89.7372 93.6591 89.736 93.5213C89.7347 93.3836 89.6775 93.2518 89.5765 93.1544C89.4756 93.057 89.339 93.0017 89.1963 93.0005C89.0535 92.9993 88.916 93.0523 88.8133 93.148L86.1347 95.7323L85.072 94.7068Z" fill="#A8B0B8"/><rect x="97.1992" y="91.4005" width="37.6" height="1.2" rx="0.6" fill="#A8B0B8"/><rect x="97.1992" y="94.6005" width="40.8" height="1.2" rx="0.6" fill="#A8B0B8"/><rect x="97.1992" y="97.8005" width="8" height="1.2" rx="0.6" fill="#A8B0B8"/><path fill-rule="evenodd" clip-rule="evenodd" d="M92.3992 114.2C92.3992 117.293 89.8923 119.8 86.7992 119.8C83.7067 119.8 81.1992 117.293 81.1992 114.2C81.1992 111.107 83.7067 108.6 86.7992 108.6C89.8923 108.6 92.3992 111.107 92.3992 114.2Z" fill="#E1E5EA"/><path d="M85.072 113.907C85.0218 113.856 84.9617 113.816 84.8953 113.789C84.8289 113.761 84.7574 113.747 84.6851 113.746C84.6129 113.746 84.5412 113.759 84.4743 113.785C84.4073 113.812 84.3466 113.851 84.2954 113.9C84.2443 113.949 84.2039 114.008 84.1765 114.073C84.1491 114.137 84.1354 114.206 84.136 114.276C84.1366 114.346 84.1517 114.415 84.1802 114.479C84.2087 114.543 84.2502 114.601 84.3022 114.649L85.7504 116.046C85.8525 116.145 85.9909 116.2 86.1353 116.2C86.2796 116.2 86.4181 116.145 86.5202 116.046L89.5832 113.091C89.6823 112.992 89.7372 112.859 89.736 112.721C89.7347 112.583 89.6775 112.452 89.5765 112.354C89.4756 112.257 89.339 112.202 89.1963 112.2C89.0535 112.199 88.916 112.252 88.8133 112.348L86.1347 114.932L85.072 113.907Z" fill="#A8B0B8"/><rect x="97.1992" y="110.6" width="40" height="1.2" rx="0.6" fill="#A8B0B8"/><rect x="97.1992" y="113.8" width="32" height="1.2" rx="0.6" fill="#A8B0B8"/></g><path opacity="0.12" fill-rule="evenodd" clip-rule="evenodd" d="M71.5996 111H148.4V107H71.5996V111Z" fill="#3D4D5C"/><path d="M41.1992 114.2C41.1992 112.433 42.6319 111 44.3992 111H175.599C177.367 111 178.799 112.433 178.799 114.2V115.8C178.799 117.567 177.367 119 175.599 119H44.3992C42.6319 119 41.1992 117.567 41.1992 115.8V114.2Z" fill="#E1E5EA"/><path d="M103.6 111H119.6V111.8C119.6 112.684 118.883 113.4 118 113.4H105.2C104.316 113.4 103.6 112.684 103.6 111.8V111Z" fill="#3D4D5C"/><path opacity="0.1" d="M41.1992 115.8H178.799V115.8C178.799 117.567 177.367 119 175.599 119H44.3992C42.6319 119 41.1992 117.567 41.1992 115.8V115.8Z" fill="#3D4D5C"/><path d="M41.1992 114.2C41.1992 112.433 42.6319 111 44.3992 111H175.599C177.367 111 178.799 112.433 178.799 114.2V115.8C178.799 117.567 177.367 119 175.599 119H44.3992C42.6319 119 41.1992 117.567 41.1992 115.8V114.2Z" stroke="#3D4D5C" stroke-width="1.2"/><path opacity="0.3" fill-rule="evenodd" clip-rule="evenodd" d="M120.266 3.55055C120.712 3.43094 121.169 3.689 121.287 4.12696L122.349 8.09188C122.467 8.52983 122.2 8.98183 121.753 9.10144C121.307 9.22106 120.85 8.96299 120.733 8.52504L119.67 4.56012C119.553 4.12216 119.82 3.67017 120.266 3.55055ZM128.359 6.27106C128.687 5.94849 128.69 5.42802 128.365 5.10854C128.04 4.78907 127.511 4.79158 127.183 5.11414L124.214 8.03442C123.886 8.35699 123.884 8.87746 124.209 9.19693C124.534 9.51641 125.063 9.5139 125.391 9.19133L128.359 6.27106ZM120.367 14.1326C120.695 13.8101 120.698 13.2896 120.373 12.9701C120.048 12.6506 119.519 12.6532 119.191 12.9757L116.222 15.896C115.894 16.2186 115.892 16.739 116.217 17.0585C116.541 17.378 117.071 17.3755 117.399 17.0529L120.367 14.1326ZM115.655 8.51199C115.21 8.39661 114.75 8.65901 114.628 9.0981C114.507 9.53718 114.769 9.98667 115.215 10.1021L119.246 11.1467C119.691 11.2621 120.15 10.9997 120.272 10.5606C120.394 10.1215 120.131 9.67203 119.686 9.55664L115.655 8.51199Z" fill="#FA811B"/><rect x="23.5996" y="118.601" width="166.4" height="1.2" rx="0.6" fill="#3D4D5C"/><rect x="14" y="118.601" width="6.4" height="1.2" rx="0.6" fill="#3D4D5C"/><rect x="193.2" y="118.601" width="6.4" height="1.2" rx="0.6" fill="#3D4D5C"/><rect x="202.8" y="118.601" width="3.2" height="1.2" rx="0.6" fill="#3D4D5C"/><path opacity="0.1" fill-rule="evenodd" clip-rule="evenodd" d="M169 51.2003V29.4C169 25.8654 166.135 23 162.6 23H119.4V26.6644C119.4 27.4176 119.979 27.9728 120.63 28.0982C123.12 28.5784 125 30.7704 125 33.4003C125 36.0303 123.12 38.2223 120.63 38.7025C119.979 38.8279 119.4 39.383 119.4 40.1363V49.0003C119.4 50.2154 120.385 51.2003 121.6 51.2003H169Z" fill="#3D4D5C"/><path fill-rule="evenodd" clip-rule="evenodd" d="M125 11.8C124.117 11.8 123.4 12.5164 123.4 13.4V22.2644C123.4 22.6858 123.729 23.0292 124.143 23.109C126.91 23.6428 129 26.0774 129 29.0002C129 31.9231 126.91 34.3577 124.143 34.8915C123.729 34.9713 123.4 35.3147 123.4 35.7361V44.6001C123.4 45.4837 124.117 46.2001 125 46.2001H181C181.884 46.2001 182.6 45.4837 182.6 44.6001V35.7363C182.6 35.3148 182.271 34.9714 181.858 34.8916C179.09 34.3581 177 31.9233 177 29.0002C177 26.0772 179.09 23.6424 181.858 23.1089C182.271 23.0291 182.6 22.6857 182.6 22.2642V13.4C182.6 12.5164 181.884 11.8 181 11.8H125Z" fill="white"/><path d="M181.858 23.1089L181.971 23.698L181.858 23.1089ZM181.858 34.8916L181.744 35.4808L181.858 34.8916ZM124.143 23.109L124.257 22.5199L124.143 23.109ZM124 13.4C124 12.8478 124.448 12.4 125 12.4V11.2C123.785 11.2 122.8 12.185 122.8 13.4H124ZM124 22.2644V13.4H122.8V22.2644H124ZM129.6 29.0002C129.6 25.7845 127.301 23.107 124.257 22.5199L124.029 23.6981C126.519 24.1785 128.4 26.3704 128.4 29.0002H129.6ZM124.257 35.4806C127.301 34.8934 129.6 32.216 129.6 29.0002H128.4C128.4 31.6301 126.519 33.822 124.029 34.3023L124.257 35.4806ZM124 44.6001V35.7361H122.8V44.6001H124ZM125 45.6001C124.448 45.6001 124 45.1523 124 44.6001H122.8C122.8 45.8151 123.785 46.8001 125 46.8001V45.6001ZM181 45.6001H125V46.8001H181V45.6001ZM182 44.6001C182 45.1523 181.553 45.6001 181 45.6001V46.8001C182.215 46.8001 183.2 45.8151 183.2 44.6001H182ZM182 35.7363V44.6001H183.2V35.7363H182ZM176.4 29.0002C176.4 32.2163 178.7 34.8939 181.744 35.4808L181.971 34.3025C179.481 33.8224 177.6 31.6303 177.6 29.0002H176.4ZM181.744 22.5197C178.7 23.1066 176.4 25.7842 176.4 29.0002H177.6C177.6 26.3702 179.481 24.1781 181.971 23.698L181.744 22.5197ZM182 13.4V22.2642H183.2V13.4H182ZM181 12.4C181.553 12.4 182 12.8478 182 13.4H183.2C183.2 12.185 182.215 11.2 181 11.2V12.4ZM125 12.4H181V11.2H125V12.4ZM181.971 23.698C182.621 23.5727 183.2 23.0175 183.2 22.2642H182C182 22.3538 181.921 22.4856 181.744 22.5197L181.971 23.698ZM183.2 35.7363C183.2 34.983 182.621 34.4278 181.971 34.3025L181.744 35.4808C181.921 35.5149 182 35.6467 182 35.7363H183.2ZM124.029 34.3023C123.379 34.4278 122.8 34.9829 122.8 35.7361H124C124 35.6465 124.08 35.5148 124.257 35.4806L124.029 34.3023ZM122.8 22.2644C122.8 23.0176 123.379 23.5727 124.029 23.6981L124.257 22.5199C124.08 22.4857 124 22.354 124 22.2644H122.8Z" fill="#3D4D5C"/><path d="M165.269 35.396L164.709 36.8649C164.591 37.1747 164.37 37.4344 164.083 37.6C163.796 37.7657 163.46 37.8274 163.133 37.7745L161.581 37.5261C161.481 37.5103 161.378 37.5157 161.28 37.542C161.182 37.5682 161.09 37.6148 161.011 37.6786L159.792 38.6696C159.535 38.8789 159.214 38.9932 158.883 38.9932C158.551 38.9932 158.23 38.8789 157.973 38.6696L156.754 37.6786C156.675 37.6146 156.583 37.5679 156.485 37.5417C156.386 37.5154 156.284 37.5101 156.183 37.5261L154.631 37.7745C154.304 37.8274 153.968 37.7657 153.681 37.6C153.394 37.4344 153.173 37.1747 153.055 36.8649L152.495 35.396C152.459 35.3013 152.403 35.2153 152.332 35.1435C152.26 35.0716 152.174 35.0156 152.08 34.9789L150.611 34.4195C150.301 34.3017 150.041 34.0804 149.875 33.7932C149.71 33.506 149.648 33.1703 149.701 32.843L149.95 31.2912C149.966 31.1914 149.962 31.0891 149.937 30.9911C149.912 30.893 149.867 30.8012 149.804 30.7216L148.806 29.5025C148.597 29.2456 148.482 28.9244 148.482 28.593C148.482 28.2616 148.597 27.9403 148.806 27.6834L149.797 26.4643C149.86 26.3847 149.905 26.293 149.93 26.1949C149.955 26.0968 149.959 25.9946 149.942 25.8947L149.701 24.3429C149.648 24.0156 149.71 23.68 149.875 23.3927C150.041 23.1055 150.301 22.8843 150.611 22.7664L152.08 22.2055C152.174 22.1697 152.261 22.1141 152.332 22.0424C152.404 21.9708 152.459 21.8847 152.495 21.79L153.056 20.321C153.174 20.011 153.395 19.7512 153.682 19.5855C153.97 19.4198 154.305 19.3583 154.633 19.4114L156.183 19.6599C156.283 19.6767 156.385 19.6724 156.483 19.6474C156.581 19.6224 156.673 19.5771 156.753 19.5146L157.972 18.5236C158.229 18.3143 158.55 18.2 158.881 18.2C159.213 18.2 159.534 18.3143 159.791 18.5236L161.01 19.5146C161.089 19.5771 161.181 19.6224 161.279 19.6474C161.377 19.6724 161.48 19.6767 161.579 19.6599L163.131 19.4114C163.459 19.3583 163.794 19.4198 164.081 19.5855C164.369 19.7512 164.59 20.011 164.708 20.321L165.267 21.79C165.304 21.8845 165.36 21.9703 165.432 22.0419C165.504 22.1135 165.59 22.1692 165.684 22.2055L167.153 22.7664C167.463 22.8845 167.723 23.1058 167.888 23.3929C168.054 23.6801 168.116 24.0156 168.063 24.3429L167.816 25.8933C167.8 25.9936 167.805 26.0961 167.832 26.1942C167.858 26.2923 167.905 26.3839 167.968 26.4629L168.959 27.6819C169.169 27.9388 169.283 28.2601 169.283 28.5915C169.283 28.9229 169.169 29.2442 168.959 29.5011L167.968 30.7202C167.905 30.7992 167.858 30.8907 167.832 30.9888C167.805 31.0869 167.8 31.1894 167.816 31.2897L168.064 32.8416C168.117 33.1689 168.055 33.5044 167.89 33.7915C167.724 34.0787 167.464 34.3 167.155 34.4181L165.686 34.9775C165.591 35.0141 165.505 35.0703 165.433 35.1424C165.361 35.2145 165.305 35.3009 165.269 35.396V35.396Z" fill="#FFAA00"/><path d="M162.907 27.1995C163.288 28.0457 163.362 28.9981 163.117 29.8929C162.871 30.7877 162.321 31.569 161.562 32.1022C160.803 32.6355 159.881 32.8875 158.956 32.8148C158.031 32.7421 157.161 32.3492 156.494 31.7039C155.79 31.9612 155.023 31.9931 154.3 31.7949C153.577 31.5968 152.933 31.1785 152.459 30.5981C152.412 30.5402 152.379 30.472 152.364 30.3991C152.348 30.3262 152.35 30.2507 152.37 30.1787C152.389 30.1067 152.425 30.0403 152.475 29.9849C152.525 29.9295 152.587 29.8867 152.656 29.86L154.587 29.1131L153.607 27.7139C153.48 27.5318 153.399 27.3211 153.373 27.1006C153.347 26.8801 153.376 26.6565 153.458 26.4498C153.539 26.2432 153.67 26.0598 153.839 25.9161C154.008 25.7723 154.211 25.6726 154.428 25.6259C155.532 25.3905 156.242 25.1624 156.558 24.9415C156.874 24.7207 157.323 24.1395 157.906 23.1979C158.024 23.009 158.186 22.8523 158.38 22.7417C158.573 22.6311 158.79 22.5701 159.013 22.5642C159.235 22.5583 159.455 22.6077 159.654 22.7079C159.853 22.8081 160.024 22.956 160.151 23.1384L161.126 24.5274L162.466 22.9858C162.515 22.9295 162.576 22.8855 162.645 22.8574C162.714 22.8294 162.789 22.8181 162.863 22.8245C162.937 22.8309 163.009 22.8547 163.072 22.8941C163.136 22.9335 163.189 22.9873 163.227 23.0512C163.608 23.6911 163.782 24.4333 163.725 25.176C163.668 25.9188 163.382 26.6256 162.907 27.1995ZM159.446 33.8136L158.41 33.6683C158.236 33.6431 158.059 33.6881 157.918 33.7936C157.776 33.8991 157.683 34.0563 157.658 34.2306C157.632 34.405 157.678 34.5823 157.783 34.7234C157.888 34.8646 158.046 34.9581 158.22 34.9833L159.256 35.1286C159.431 35.1529 159.608 35.1068 159.748 35.0005C159.889 34.8943 159.981 34.7365 160.006 34.5619C160.03 34.3874 159.984 34.2103 159.878 34.0697C159.771 33.9291 159.614 33.8364 159.439 33.8122L159.446 33.8136ZM164.891 29.164C164.719 29.1273 164.539 29.1605 164.392 29.2561C164.244 29.3517 164.14 29.502 164.103 29.674L163.887 30.7042C163.866 30.7906 163.862 30.8804 163.877 30.9682C163.891 31.0559 163.923 31.14 163.97 31.2152C164.018 31.2904 164.08 31.3554 164.153 31.4062C164.226 31.457 164.308 31.4926 164.395 31.5109C164.482 31.5292 164.572 31.5298 164.66 31.5127C164.747 31.4957 164.83 31.4612 164.903 31.4114C164.977 31.3617 165.04 31.2976 165.089 31.223C165.137 31.1485 165.17 31.0649 165.186 30.9773V30.9773L165.402 29.9602C165.439 29.7874 165.406 29.6069 165.31 29.4584C165.215 29.31 165.064 29.2056 164.891 29.1684V29.164Z" fill="white"/><line x1="140" y1="12.4" x2="140" y2="45.6001" stroke="#3D4D5C" stroke-width="1.2" stroke-linecap="round" stroke-dasharray="2 2.8"/><defs><clipPath id="clip0_516_32207"><rect width="57.6" height="84" fill="white" transform="translate(81.1992 31.8003)"/></clipPath></defs></svg>